# xmcd CD database file
#
# Track frame offsets:
#	150
#	38894
#	83960
#	127326
#	170204
#	213082
#	256448
#
# Disc length: 4012 seconds
#
# Revision: 0
# Processed by: cddbd v1.5.2PL0 Copyright (c) Steve Scherf et al.
# Submitted via: CDex 1.51
#
DISCID=660faa07
DTITLE=Ashana and Thomas Barquee - Jewels Of Silence
DYEAR=2009
DGENRE=New Age
TTITLE0=Heart Of Gaia
TTITLE1=Still Light On Water
TTITLE2=Soulmerge
TTITLE3=Hymn
TTITLE4=Canticle Of Light
TTITLE5=Vision
TTITLE6=Sanctus
EXTD=YEAR: 2009
EXTT0=
EXTT1=
EXTT2=
EXTT3=
EXTT4=
EXTT5=
EXTT6=
PLAYORDER=
